<svg width="1400" height="380" viewBox="0 0 1400 380" xmlns="http://www.w3.org/2000/svg">
  <defs>
    <linearGradient id="dbg" x1="0%" y1="0%" x2="100%" y2="100%">
      <stop offset="0%" stop-color="#080911"/>
      <stop offset="100%" stop-color="#0d0817"/>
    </linearGradient>
    <linearGradient id="chip" x1="0%" y1="0%" x2="100%" y2="100%">
      <stop offset="0%" stop-color="#a78bfa" stop-opacity="0.28"/>
      <stop offset="100%" stop-color="#38bdf8" stop-opacity="0.14"/>
    </linearGradient>
  </defs>
  <rect width="1400" height="380" fill="url(#dbg)"/>
  <text x="700" y="46" font-family="'Segoe UI', Arial, sans-serif" font-size="26" font-weight="800" text-anchor="middle" fill="#f1f5f9">DSA PATTERN COVERAGE &#8226; C++</text>
  <text x="700" y="68" font-family="Consolas, monospace" font-size="12.5" text-anchor="middle" fill="#94a3b8">core problem-solving techniques practiced across Easy / Medium / Hard</text>

  <g font-family="'Segoe UI', sans-serif" font-size="13.5" font-weight="600">
    <!-- row 1 -->
    <rect x="60" y="100" width="200" height="56" rx="14" fill="url(#chip)" stroke="#a78bfa" stroke-opacity="0.4"/>
    <text x="160" y="133" text-anchor="middle" fill="#e9d5ff">Binary Lifting</text>

    <rect x="280" y="100" width="200" height="56" rx="14" fill="url(#chip)" stroke="#a78bfa" stroke-opacity="0.4"/>
    <text x="380" y="133" text-anchor="middle" fill="#e9d5ff">DSU / Union-Find</text>

    <rect x="500" y="100" width="200" height="56" rx="14" fill="url(#chip)" stroke="#a78bfa" stroke-opacity="0.4"/>
    <text x="600" y="133" text-anchor="middle" fill="#e9d5ff">Sparse Tables</text>

    <rect x="720" y="100" width="200" height="56" rx="14" fill="url(#chip)" stroke="#a78bfa" stroke-opacity="0.4"/>
    <text x="820" y="133" text-anchor="middle" fill="#e9d5ff">Segment Trees</text>

    <rect x="940" y="100" width="200" height="56" rx="14" fill="url(#chip)" stroke="#a78bfa" stroke-opacity="0.4"/>
    <text x="1040" y="133" text-anchor="middle" fill="#e9d5ff">Dynamic Programming</text>

    <rect x="1160" y="100" width="180" height="56" rx="14" fill="url(#chip)" stroke="#a78bfa" stroke-opacity="0.4"/>
    <text x="1250" y="133" text-anchor="middle" fill="#e9d5ff">Sliding Window</text>

    <!-- row 2 -->
    <rect x="170" y="176" width="200" height="56" rx="14" fill="url(#chip)" stroke="#38bdf8" stroke-opacity="0.4"/>
    <text x="270" y="209" text-anchor="middle" fill="#bae6fd">Monotonic Stacks</text>

    <rect x="390" y="176" width="200" height="56" rx="14" fill="url(#chip)" stroke="#38bdf8" stroke-opacity="0.4"/>
    <text x="490" y="209" text-anchor="middle" fill="#bae6fd">Graph Traversal</text>

    <rect x="610" y="176" width="200" height="56" rx="14" fill="url(#chip)" stroke="#38bdf8" stroke-opacity="0.4"/>
    <text x="710" y="209" text-anchor="middle" fill="#bae6fd">Two Pointers</text>

    <rect x="830" y="176" width="200" height="56" rx="14" fill="url(#chip)" stroke="#38bdf8" stroke-opacity="0.4"/>
    <text x="930" y="209" text-anchor="middle" fill="#bae6fd">Binary Search</text>

    <rect x="1050" y="176" width="200" height="56" rx="14" fill="url(#chip)" stroke="#38bdf8" stroke-opacity="0.4"/>
    <text x="1150" y="209" text-anchor="middle" fill="#bae6fd">Backtracking</text>
  </g>

  <text x="700" y="270" font-family="Consolas, monospace" font-size="13" text-anchor="middle" fill="#94a3b8">
    Primary language: C++ &#8226; Archive: github.com/S2zxx0zxx/Leetcode-Solutions &#8226; also includes Python + SQL
  </text>
  <text x="700" y="296" font-family="Consolas, monospace" font-size="12" text-anchor="middle" fill="#64748b">
    discipline target: competitive contest rankings, not just interview prep
  </text>

  <rect x="500" y="320" width="400" height="34" rx="17" fill="none" stroke="#a78bfa" stroke-opacity="0.4"/>
  <text x="700" y="342" text-anchor="middle" font-family="Consolas, monospace" font-size="12.5" fill="#c4b5fd">github.com/S2zxx0zxx/Leetcode-Solutions</text>
</svg>
